<?xml version="1.0" standalone="no"?>
<!DOCTYPE svg PUBLIC "-//W3C//DTD SVG 20010904//EN"
 "http://www.w3.org/TR/2001/REC-SVG-20010904/DTD/svg10.dtd">
<svg version="1.0" xmlns="http://www.w3.org/2000/svg"
 width="512.000000pt" height="512.000000pt" viewBox="0 0 512.000000 512.000000"
 preserveAspectRatio="xMidYMid meet">

<g transform="translate(0.000000,512.000000) scale(0.100000,-0.100000)"
fill="#000000" stroke="none">
<path d="M3320 3739 c0 -11 9 -57 21 -101 11 -44 18 -82 16 -85 -3 -2 -244 1
-537 8 -492 10 -536 13 -564 30 -41 25 -71 24 -153 -5 -57 -20 -100 -26 -260
-35 -183 -11 -196 -10 -253 9 -102 34 -204 44 -455 45 -192 0 -258 -4 -329
-18 -111 -23 -234 -67 -297 -108 -105 -67 -199 -199 -249 -349 -34 -106 -52
-244 -39 -315 8 -44 8 -85 -1 -157 -10 -76 -10 -120 0 -196 9 -72 9 -113 1
-157 -13 -71 5 -209 39 -315 50 -150 144 -282 249 -349 63 -41 186 -85 297
-108 71 -14 137 -18 329 -18 253 1 356 11 452 45 55 20 67 20 253 10 162 -10
206 -16 263 -36 82 -29 112 -30 153 -5 29 17 71 20 564 30 293 7 534 10 537 8
2 -3 -5 -41 -16 -85 -12 -44 -21 -90 -21 -101 0 -21 1 -21 37 -6 46 19 69 39
99 88 l24 37 394 0 c443 0 479 4 619 77 97 50 218 171 270 271 88 167 155 587
136 852 -20 289 -66 473 -150 599 -63 94 -187 204 -282 251 -141 68 -153 70
-594 70 l-393 0 -24 38 c-30 48 -53 68 -99 87 -36 15 -37 15 -37 -6z m-22
-226 c134 -3 239 -9 235 -13 -8 -8 -536 -70 -808 -95 -347 -32 -524 -38 -793
-25 -257 11 -599 33 -722 47 l-65 6 60 13 c224 46 405 66 695 74 299 8 955 5
1398 -7z m1244 -42 c100 -64 155 -201 79 -201 -77 0 -210 165 -176 219 11 19
50 12 97 -18z m-688 -114 c213 -217 288 -426 288 -797 0 -371 -75 -580 -288
-797 -75 -76 -97 -93 -121 -93 -17 0 -175 22 -353 50 -178 27 -326 50 -330 50
-4 0 3 37 16 81 13 45 36 134 51 198 l28 116 0 395 0 395 -28 116 c-15 64 -38
153 -51 197 l-23 80 141 22 c78 12 220 34 316 50 269 43 245 47 354 -63z
m-3314 38 c40 -48 -63 -245 -129 -245 -24 0 -41 20 -41 47 0 44 42 135 81 174
41 41 69 49 89 24z m910 -125 c0 -6 -17 -95 -37 -198 l-37 -187 -1 -320 0
-320 39 -198 c21 -109 36 -200 33 -203 -2 -2 -159 2 -347 10 l-344 15 -22 28
c-35 42 -100 171 -118 233 -62 209 -62 651 0 860 18 63 83 191 118 233 l23 29
289 12 c387 18 404 18 404 6z m-940 -711 c0 -140 -3 -180 -12 -177 -10 4 -14
48 -16 168 -3 167 0 190 18 190 6 0 10 -63 10 -181z m-53 -613 c61 -51 111
-187 83 -221 -20 -25 -48 -17 -89 24 -39 39 -81 130 -81 174 0 50 42 61 87 23z
m4199 -121 c13 -54 -91 -183 -162 -201 -43 -11 -57 2 -51 44 18 108 193 237
213 157z m-2043 -100 c100 -9 324 -32 497 -51 173 -19 339 -38 368 -41 79 -9
73 -23 -10 -23 -40 0 -275 -5 -523 -11 -633 -16 -1277 -1 -1515 37 -91 14
-192 31 -225 38 l-60 12 60 7 c85 10 468 36 670 47 212 11 500 5 738 -15z"/>
</g>
</svg>
